<?xml version="1.0"?>
<!-- Generated by SVGo -->
<svg width="107.680mm" height="133.032mm"
     viewBox="0.000 0.000 107.680 133.032"
     xmlns="http://www.w3.org/2000/svg" 
     xmlns:xlink="http://www.w3.org/1999/xlink">
<polygon points="102.679,128.032 5.001,128.032 5.001,5.000 102.679,5.000" style="fill:none;stroke-width:0.050000mm;stroke:black"/>
<polygon points="78.844,121.848 92.632,124.279 95.063,110.491 81.275,108.060" style="fill:none;stroke-width:0.050000mm;stroke:black"/>
<polygon points="49.877,121.576 63.664,124.007 66.095,110.219 52.308,107.788" style="fill:none;stroke-width:0.050000mm;stroke:black"/>
<polygon points="31.116,118.268 44.903,120.699 47.334,106.911 33.547,104.480" style="fill:none;stroke-width:0.050000mm;stroke:black"/>
<polygon points="7.526,83.725 7.526,97.725 21.526,97.725 21.526,83.725" style="fill:none;stroke-width:0.050000mm;stroke:black"/>
<polygon points="83.726,83.725 83.726,97.725 97.726,97.725 97.726,83.725" style="fill:none;stroke-width:0.050000mm;stroke:black"/>
<polygon points="26.576,74.200 26.576,88.200 40.576,88.200 40.576,74.200" style="fill:none;stroke-width:0.050000mm;stroke:black"/>
<polygon points="64.676,74.200 64.676,88.200 78.676,88.200 78.676,74.200" style="fill:none;stroke-width:0.050000mm;stroke:black"/>
<polygon points="45.626,69.437 45.626,83.437 59.626,83.437 59.626,69.437" style="fill:none;stroke-width:0.050000mm;stroke:black"/>
<polygon points="7.526,64.675 7.526,78.675 21.526,78.675 21.526,64.675" style="fill:none;stroke-width:0.050000mm;stroke:black"/>
<polygon points="83.726,64.675 83.726,78.675 97.726,78.675 97.726,64.675" style="fill:none;stroke-width:0.050000mm;stroke:black"/>
<polygon points="26.576,55.150 26.576,69.150 40.576,69.150 40.576,55.150" style="fill:none;stroke-width:0.050000mm;stroke:black"/>
<polygon points="64.676,55.150 64.676,69.150 78.676,69.150 78.676,55.150" style="fill:none;stroke-width:0.050000mm;stroke:black"/>
<polygon points="45.626,50.387 45.626,64.387 59.626,64.387 59.626,50.387" style="fill:none;stroke-width:0.050000mm;stroke:black"/>
<polygon points="7.526,45.625 7.526,59.625 21.526,59.625 21.526,45.625" style="fill:none;stroke-width:0.050000mm;stroke:black"/>
<polygon points="83.726,45.625 83.726,59.625 97.726,59.625 97.726,45.625" style="fill:none;stroke-width:0.050000mm;stroke:black"/>
<polygon points="26.576,36.100 26.576,50.100 40.576,50.100 40.576,36.100" style="fill:none;stroke-width:0.050000mm;stroke:black"/>
<polygon points="64.676,36.100 64.676,50.100 78.676,50.100 78.676,36.100" style="fill:none;stroke-width:0.050000mm;stroke:black"/>
<polygon points="45.626,31.337 45.626,45.337 59.626,45.337 59.626,31.337" style="fill:none;stroke-width:0.050000mm;stroke:black"/>
<polygon points="7.526,26.575 7.526,40.575 21.526,40.575 21.526,26.575" style="fill:none;stroke-width:0.050000mm;stroke:black"/>
<polygon points="83.726,26.575 83.726,40.575 97.726,40.575 97.726,26.575" style="fill:none;stroke-width:0.050000mm;stroke:black"/>
<polygon points="26.576,17.050 26.576,31.050 40.576,31.050 40.576,17.050" style="fill:none;stroke-width:0.050000mm;stroke:black"/>
<polygon points="64.676,17.050 64.676,31.050 78.676,31.050 78.676,17.050" style="fill:none;stroke-width:0.050000mm;stroke:black"/>
<polygon points="45.626,12.287 45.626,26.287 59.626,26.287 59.626,12.287" style="fill:none;stroke-width:0.050000mm;stroke:black"/>
</svg>
